<svg width="512" height="512" viewBox="0 0 512 512" fill="none" xmlns="http://www.w3.org/2000/svg">
<path d="M512 256C512 397.4 397.4 512 256 512C114.6 512 0 397.4 0 256C0 114.6 114.6 0 256 0C397.4 0 512 114.6 512 256ZM256 224C273.7 224 288 238.3 288 256C288 273.7 273.7 288 256 288C238.3 288 224 273.7 224 256C224 238.3 238.3 224 256 224ZM160 256C160 309 203 352 256 352C309 352 352 309 352 256C352 203 309 160 256 160C203 160 160 203 160 256ZM96 240C96 205 113.5 168.9 141.2 141.2C168.9 113.5 205 96 240 96C248.8 96 256 88.8 256 80C256 71.2 248.8 64 240 64C194.6 64 150.8 86.3 118.5 118.5C86.2 150.7 64 194.6 64 240C64 248.8 71.2 256 80 256C88.8 256 96 248.8 96 240Z" fill="black"/>
</svg>
