<svg xmlns="http://www.w3.org/2000/svg" xmlns:xlink="http://www.w3.org/1999/xlink" width="1080" zoomAndPan="magnify" viewBox="0 0 810 809.999993" height="1080" preserveAspectRatio="xMidYMid meet" version="1.0"><defs><g/><clipPath id="b64e299997"><path d="M 405 0 C 181.324219 0 0 181.324219 0 405 C 0 628.675781 181.324219 810 405 810 C 628.675781 810 810 628.675781 810 405 C 810 181.324219 628.675781 0 405 0 " clip-rule="nonzero"/></clipPath></defs><rect x="-81" width="972" fill="#ffffff" y="-80.999999" height="971.999992" fill-opacity="1"/><rect x="-81" width="972" fill="#ffffff" y="-80.999999" height="971.999992" fill-opacity="1"/><g clip-path="url(#b64e299997)"><rect x="-81" width="972" fill="#fff5de" y="-80.999999" height="971.999992" fill-opacity="1"/></g><path fill="#604329" d="M 236.769531 327.289062 C 190.5 312.773438 150.449219 234.277344 151.320312 182.578125 C 151.78125 155.425781 163.324219 137.335938 183.828125 131.648438 C 237.742188 116.738281 273.773438 168.316406 285.289062 197.714844 L 271.582031 203.074219 C 271.503906 202.886719 264 184.085938 249.5 167.714844 C 231.089844 146.917969 210.320312 139.5625 187.761719 145.808594 C 173.699219 149.707031 166.386719 162.15625 166.035156 182.816406 C 165.265625 228.25 202.277344 301.0625 241.179688 313.265625 Z M 469.644531 416.945312 L 578.65625 323.664062 L 578.65625 232.710938 C 578.65625 210.835938 560.832031 193.042969 538.921875 193.042969 L 485.039062 193.042969 L 445.59375 155.359375 L 364.683594 155.359375 L 325.230469 193.042969 L 271.34375 193.042969 C 249.4375 193.042969 231.613281 210.835938 231.613281 232.710938 L 231.613281 323.664062 L 340.632812 416.945312 C 350.761719 425.625 363.683594 430.394531 377.027344 430.394531 L 433.257812 430.394531 C 446.59375 430.394531 459.519531 425.617188 469.644531 416.945312 Z M 246.335938 232.710938 C 246.335938 218.9375 257.558594 207.738281 271.34375 207.738281 L 331.128906 207.738281 L 370.585938 170.058594 L 439.683594 170.058594 L 479.136719 207.738281 L 538.921875 207.738281 C 552.710938 207.738281 563.933594 218.945312 563.933594 232.710938 L 563.933594 316.902344 L 460.070312 405.796875 C 452.605469 412.179688 443.085938 415.695312 433.257812 415.695312 L 377.027344 415.695312 C 367.199219 415.695312 357.679688 412.179688 350.214844 405.789062 L 246.335938 316.902344 Z M 658.953125 182.578125 C 658.492188 155.425781 646.953125 137.335938 626.449219 131.648438 C 572.5 116.675781 536.503906 168.324219 524.984375 197.714844 L 538.691406 203.066406 C 538.980469 202.339844 567.804688 130.597656 622.503906 145.816406 C 636.570312 149.714844 643.875 162.164062 644.222656 182.824219 C 644.992188 228.257812 607.980469 301.070312 569.082031 313.273438 L 573.492188 327.296875 C 619.769531 312.773438 659.828125 234.269531 658.953125 182.578125 Z M 492.535156 327.679688 L 317.742188 327.679688 L 317.742188 342.378906 L 492.535156 342.378906 Z M 492.535156 290.441406 L 317.742188 290.441406 L 317.742188 305.140625 L 492.535156 305.140625 Z M 492.535156 253.203125 L 317.742188 253.203125 L 317.742188 267.902344 L 492.535156 267.902344 Z M 492.535156 253.203125 " fill-opacity="1" fill-rule="nonzero"/><g fill="#604329" fill-opacity="1"><g transform="translate(233.441116, 526.45786)"><g><path d="M 38.0625 -34.609375 C 37.15625 -36.285156 35.847656 -37.566406 34.140625 -38.453125 C 32.429688 -39.347656 30.421875 -39.796875 28.109375 -39.796875 C 24.117188 -39.796875 20.921875 -38.484375 18.515625 -35.859375 C 16.117188 -33.242188 14.921875 -29.75 14.921875 -25.375 C 14.921875 -20.71875 16.179688 -17.078125 18.703125 -14.453125 C 21.234375 -11.835938 24.707031 -10.53125 29.125 -10.53125 C 32.15625 -10.53125 34.710938 -11.296875 36.796875 -12.828125 C 38.890625 -14.367188 40.414062 -16.582031 41.375 -19.46875 L 25.734375 -19.46875 L 25.734375 -28.546875 L 52.5625 -28.546875 L 52.5625 -17.09375 C 51.644531 -14.007812 50.09375 -11.144531 47.90625 -8.5 C 45.71875 -5.863281 42.941406 -3.726562 39.578125 -2.09375 C 36.210938 -0.457031 32.414062 0.359375 28.1875 0.359375 C 23.1875 0.359375 18.726562 -0.734375 14.8125 -2.921875 C 10.894531 -5.109375 7.84375 -8.144531 5.65625 -12.03125 C 3.46875 -15.925781 2.375 -20.375 2.375 -25.375 C 2.375 -30.375 3.46875 -34.832031 5.65625 -38.75 C 7.84375 -42.664062 10.882812 -45.71875 14.78125 -47.90625 C 18.675781 -50.09375 23.117188 -51.1875 28.109375 -51.1875 C 34.171875 -51.1875 39.28125 -49.71875 43.4375 -46.78125 C 47.59375 -43.851562 50.34375 -39.796875 51.6875 -34.609375 Z M 38.0625 -34.609375 "/></g></g></g><g fill="#604329" fill-opacity="1"><g transform="translate(288.364826, 526.45786)"><g><path d="M 44.1875 -40.234375 L 44.1875 0 L 31.859375 0 L 31.859375 -5.484375 C 30.609375 -3.703125 28.914062 -2.269531 26.78125 -1.1875 C 24.644531 -0.101562 22.28125 0.4375 19.6875 0.4375 C 16.601562 0.4375 13.882812 -0.242188 11.53125 -1.609375 C 9.175781 -2.984375 7.347656 -4.96875 6.046875 -7.5625 C 4.753906 -10.164062 4.109375 -13.21875 4.109375 -16.71875 L 4.109375 -40.234375 L 16.359375 -40.234375 L 16.359375 -18.390625 C 16.359375 -15.691406 17.054688 -13.597656 18.453125 -12.109375 C 19.847656 -10.617188 21.722656 -9.875 24.078125 -9.875 C 26.484375 -9.875 28.378906 -10.617188 29.765625 -12.109375 C 31.160156 -13.597656 31.859375 -15.691406 31.859375 -18.390625 L 31.859375 -40.234375 Z M 44.1875 -40.234375 "/></g></g></g><g fill="#604329" fill-opacity="1"><g transform="translate(336.945645, 526.45786)"><g><path d="M 28.984375 -40.65625 C 33.691406 -40.65625 37.453125 -39.128906 40.265625 -36.078125 C 43.078125 -33.023438 44.484375 -28.832031 44.484375 -23.5 L 44.484375 0 L 32.21875 0 L 32.21875 -21.84375 C 32.21875 -24.53125 31.519531 -26.617188 30.125 -28.109375 C 28.738281 -29.597656 26.867188 -30.34375 24.515625 -30.34375 C 22.160156 -30.34375 20.285156 -29.597656 18.890625 -28.109375 C 17.492188 -26.617188 16.796875 -24.53125 16.796875 -21.84375 L 16.796875 0 L 4.46875 0 L 4.46875 -40.234375 L 16.796875 -40.234375 L 16.796875 -34.890625 C 18.046875 -36.671875 19.726562 -38.078125 21.84375 -39.109375 C 23.957031 -40.140625 26.335938 -40.65625 28.984375 -40.65625 Z M 28.984375 -40.65625 "/></g></g></g><g fill="#604329" fill-opacity="1"><g transform="translate(385.526463, 526.45786)"><g><path d="M 2.015625 -20.1875 C 2.015625 -24.320312 2.796875 -27.953125 4.359375 -31.078125 C 5.921875 -34.203125 8.046875 -36.601562 10.734375 -38.28125 C 13.429688 -39.96875 16.4375 -40.8125 19.75 -40.8125 C 22.582031 -40.8125 25.066406 -40.234375 27.203125 -39.078125 C 29.347656 -37.921875 31 -36.40625 32.15625 -34.53125 L 32.15625 -40.234375 L 44.484375 -40.234375 L 44.484375 0 L 32.15625 0 L 32.15625 -5.703125 C 30.945312 -3.828125 29.273438 -2.3125 27.140625 -1.15625 C 25.003906 0 22.519531 0.578125 19.6875 0.578125 C 16.414062 0.578125 13.429688 -0.273438 10.734375 -1.984375 C 8.046875 -3.691406 5.921875 -6.117188 4.359375 -9.265625 C 2.796875 -12.410156 2.015625 -16.050781 2.015625 -20.1875 Z M 32.15625 -20.109375 C 32.15625 -23.191406 31.300781 -25.617188 29.59375 -27.390625 C 27.882812 -29.171875 25.804688 -30.0625 23.359375 -30.0625 C 20.910156 -30.0625 18.832031 -29.179688 17.125 -27.421875 C 15.414062 -25.671875 14.5625 -23.257812 14.5625 -20.1875 C 14.5625 -17.113281 15.414062 -14.675781 17.125 -12.875 C 18.832031 -11.070312 20.910156 -10.171875 23.359375 -10.171875 C 25.804688 -10.171875 27.882812 -11.054688 29.59375 -12.828125 C 31.300781 -14.609375 32.15625 -17.035156 32.15625 -20.109375 Z M 32.15625 -20.109375 "/></g></g></g><g fill="#604329" fill-opacity="1"><g transform="translate(434.467685, 526.45786)"><g><path d="M 29.046875 0 L 16.796875 -16.875 L 16.796875 0 L 4.46875 0 L 4.46875 -53.34375 L 16.796875 -53.34375 L 16.796875 -23.859375 L 28.984375 -40.234375 L 44.1875 -40.234375 L 27.46875 -20.046875 L 44.34375 0 Z M 29.046875 0 "/></g></g></g><g fill="#604329" fill-opacity="1"><g transform="translate(479.012104, 526.45786)"><g><path d="M 2.015625 -20.1875 C 2.015625 -24.320312 2.796875 -27.953125 4.359375 -31.078125 C 5.921875 -34.203125 8.046875 -36.601562 10.734375 -38.28125 C 13.429688 -39.96875 16.4375 -40.8125 19.75 -40.8125 C 22.582031 -40.8125 25.066406 -40.234375 27.203125 -39.078125 C 29.347656 -37.921875 31 -36.40625 32.15625 -34.53125 L 32.15625 -40.234375 L 44.484375 -40.234375 L 44.484375 0 L 32.15625 0 L 32.15625 -5.703125 C 30.945312 -3.828125 29.273438 -2.3125 27.140625 -1.15625 C 25.003906 0 22.519531 0.578125 19.6875 0.578125 C 16.414062 0.578125 13.429688 -0.273438 10.734375 -1.984375 C 8.046875 -3.691406 5.921875 -6.117188 4.359375 -9.265625 C 2.796875 -12.410156 2.015625 -16.050781 2.015625 -20.1875 Z M 32.15625 -20.109375 C 32.15625 -23.191406 31.300781 -25.617188 29.59375 -27.390625 C 27.882812 -29.171875 25.804688 -30.0625 23.359375 -30.0625 C 20.910156 -30.0625 18.832031 -29.179688 17.125 -27.421875 C 15.414062 -25.671875 14.5625 -23.257812 14.5625 -20.1875 C 14.5625 -17.113281 15.414062 -14.675781 17.125 -12.875 C 18.832031 -11.070312 20.910156 -10.171875 23.359375 -10.171875 C 25.804688 -10.171875 27.882812 -11.054688 29.59375 -12.828125 C 31.300781 -14.609375 32.15625 -17.035156 32.15625 -20.109375 Z M 32.15625 -20.109375 "/></g></g></g><g fill="#604329" fill-opacity="1"><g transform="translate(527.953326, 526.45786)"><g><path d="M 28.984375 -40.65625 C 33.691406 -40.65625 37.453125 -39.128906 40.265625 -36.078125 C 43.078125 -33.023438 44.484375 -28.832031 44.484375 -23.5 L 44.484375 0 L 32.21875 0 L 32.21875 -21.84375 C 32.21875 -24.53125 31.519531 -26.617188 30.125 -28.109375 C 28.738281 -29.597656 26.867188 -30.34375 24.515625 -30.34375 C 22.160156 -30.34375 20.285156 -29.597656 18.890625 -28.109375 C 17.492188 -26.617188 16.796875 -24.53125 16.796875 -21.84375 L 16.796875 0 L 4.46875 0 L 4.46875 -40.234375 L 16.796875 -40.234375 L 16.796875 -34.890625 C 18.046875 -36.671875 19.726562 -38.078125 21.84375 -39.109375 C 23.957031 -40.140625 26.335938 -40.65625 28.984375 -40.65625 Z M 28.984375 -40.65625 "/></g></g></g><g fill="#604329" fill-opacity="1"><g transform="translate(140.464163, 626.812304)"><g><path d="M 61.78125 -50.609375 L 61.78125 0 L 49.453125 0 L 49.453125 -30.34375 L 38.140625 0 L 28.1875 0 L 16.796875 -30.421875 L 16.796875 0 L 4.46875 0 L 4.46875 -50.609375 L 19.03125 -50.609375 L 33.234375 -15.578125 L 47.296875 -50.609375 Z M 61.78125 -50.609375 "/></g></g></g><g fill="#604329" fill-opacity="1"><g transform="translate(206.632115, 626.812304)"><g><path d="M 2.015625 -20.1875 C 2.015625 -24.320312 2.796875 -27.953125 4.359375 -31.078125 C 5.921875 -34.203125 8.046875 -36.601562 10.734375 -38.28125 C 13.429688 -39.96875 16.4375 -40.8125 19.75 -40.8125 C 22.582031 -40.8125 25.066406 -40.234375 27.203125 -39.078125 C 29.347656 -37.921875 31 -36.40625 32.15625 -34.53125 L 32.15625 -40.234375 L 44.484375 -40.234375 L 44.484375 0 L 32.15625 0 L 32.15625 -5.703125 C 30.945312 -3.828125 29.273438 -2.3125 27.140625 -1.15625 C 25.003906 0 22.519531 0.578125 19.6875 0.578125 C 16.414062 0.578125 13.429688 -0.273438 10.734375 -1.984375 C 8.046875 -3.691406 5.921875 -6.117188 4.359375 -9.265625 C 2.796875 -12.410156 2.015625 -16.050781 2.015625 -20.1875 Z M 32.15625 -20.109375 C 32.15625 -23.191406 31.300781 -25.617188 29.59375 -27.390625 C 27.882812 -29.171875 25.804688 -30.0625 23.359375 -30.0625 C 20.910156 -30.0625 18.832031 -29.179688 17.125 -27.421875 C 15.414062 -25.671875 14.5625 -23.257812 14.5625 -20.1875 C 14.5625 -17.113281 15.414062 -14.675781 17.125 -12.875 C 18.832031 -11.070312 20.910156 -10.171875 23.359375 -10.171875 C 25.804688 -10.171875 27.882812 -11.054688 29.59375 -12.828125 C 31.300781 -14.609375 32.15625 -17.035156 32.15625 -20.109375 Z M 32.15625 -20.109375 "/></g></g></g><g fill="#604329" fill-opacity="1"><g transform="translate(255.573337, 626.812304)"><g><path d="M 20.828125 0.578125 C 17.328125 0.578125 14.207031 -0.0195312 11.46875 -1.21875 C 8.726562 -2.425781 6.5625 -4.070312 4.96875 -6.15625 C 3.382812 -8.25 2.5 -10.59375 2.3125 -13.1875 L 14.484375 -13.1875 C 14.628906 -11.800781 15.28125 -10.671875 16.4375 -9.796875 C 17.59375 -8.929688 19.007812 -8.5 20.6875 -8.5 C 22.226562 -8.5 23.414062 -8.800781 24.25 -9.40625 C 25.09375 -10.007812 25.515625 -10.789062 25.515625 -11.75 C 25.515625 -12.90625 24.914062 -13.757812 23.71875 -14.3125 C 22.519531 -14.863281 20.570312 -15.476562 17.875 -16.15625 C 14.988281 -16.820312 12.582031 -17.523438 10.65625 -18.265625 C 8.738281 -19.015625 7.082031 -20.191406 5.6875 -21.796875 C 4.300781 -23.410156 3.609375 -25.585938 3.609375 -28.328125 C 3.609375 -30.640625 4.242188 -32.742188 5.515625 -34.640625 C 6.785156 -36.535156 8.65625 -38.035156 11.125 -39.140625 C 13.601562 -40.253906 16.550781 -40.8125 19.96875 -40.8125 C 25.019531 -40.8125 29 -39.5625 31.90625 -37.0625 C 34.8125 -34.5625 36.476562 -31.242188 36.90625 -27.109375 L 25.515625 -27.109375 C 25.328125 -28.503906 24.710938 -29.609375 23.671875 -30.421875 C 22.640625 -31.242188 21.285156 -31.65625 19.609375 -31.65625 C 18.171875 -31.65625 17.066406 -31.375 16.296875 -30.8125 C 15.523438 -30.257812 15.140625 -29.503906 15.140625 -28.546875 C 15.140625 -27.390625 15.75 -26.523438 16.96875 -25.953125 C 18.195312 -25.378906 20.109375 -24.800781 22.703125 -24.21875 C 25.679688 -23.445312 28.109375 -22.6875 29.984375 -21.9375 C 31.859375 -21.195312 33.503906 -20 34.921875 -18.34375 C 36.347656 -16.6875 37.082031 -14.460938 37.125 -11.671875 C 37.125 -9.316406 36.460938 -7.210938 35.140625 -5.359375 C 33.816406 -3.515625 31.914062 -2.0625 29.4375 -1 C 26.96875 0.0507812 24.097656 0.578125 20.828125 0.578125 Z M 20.828125 0.578125 "/></g></g></g><g fill="#604329" fill-opacity="1"><g transform="translate(295.793076, 626.812304)"><g><path d="M 29.046875 0 L 16.796875 -16.875 L 16.796875 0 L 4.46875 0 L 4.46875 -53.34375 L 16.796875 -53.34375 L 16.796875 -23.859375 L 28.984375 -40.234375 L 44.1875 -40.234375 L 27.46875 -20.046875 L 44.34375 0 Z M 29.046875 0 "/></g></g></g><g fill="#604329" fill-opacity="1"><g transform="translate(340.337495, 626.812304)"><g><path d="M 42.390625 -20.765625 C 42.390625 -19.609375 42.316406 -18.40625 42.171875 -17.15625 L 14.28125 -17.15625 C 14.46875 -14.65625 15.269531 -12.742188 16.6875 -11.421875 C 18.101562 -10.097656 19.847656 -9.4375 21.921875 -9.4375 C 24.992188 -9.4375 27.128906 -10.738281 28.328125 -13.34375 L 41.453125 -13.34375 C 40.773438 -10.695312 39.5625 -8.316406 37.8125 -6.203125 C 36.0625 -4.085938 33.863281 -2.425781 31.21875 -1.21875 C 28.570312 -0.0195312 25.613281 0.578125 22.34375 0.578125 C 18.40625 0.578125 14.894531 -0.257812 11.8125 -1.9375 C 8.738281 -3.625 6.335938 -6.03125 4.609375 -9.15625 C 2.878906 -12.28125 2.015625 -15.929688 2.015625 -20.109375 C 2.015625 -24.296875 2.867188 -27.953125 4.578125 -31.078125 C 6.285156 -34.203125 8.675781 -36.601562 11.75 -38.28125 C 14.820312 -39.96875 18.351562 -40.8125 22.34375 -40.8125 C 26.238281 -40.8125 29.695312 -39.992188 32.71875 -38.359375 C 35.75 -36.722656 38.117188 -34.390625 39.828125 -31.359375 C 41.535156 -28.328125 42.390625 -24.796875 42.390625 -20.765625 Z M 29.78125 -24 C 29.78125 -26.113281 29.054688 -27.796875 27.609375 -29.046875 C 26.171875 -30.296875 24.367188 -30.921875 22.203125 -30.921875 C 20.140625 -30.921875 18.394531 -30.320312 16.96875 -29.125 C 15.550781 -27.925781 14.675781 -26.21875 14.34375 -24 Z M 29.78125 -24 "/></g></g></g><g fill="#604329" fill-opacity="1"><g transform="translate(384.737772, 626.812304)"><g><path d="M 16.796875 -33.53125 C 18.234375 -35.738281 20.035156 -37.476562 22.203125 -38.75 C 24.367188 -40.019531 26.773438 -40.65625 29.421875 -40.65625 L 29.421875 -27.609375 L 26.03125 -27.609375 C 22.945312 -27.609375 20.632812 -26.945312 19.09375 -25.625 C 17.5625 -24.300781 16.796875 -21.984375 16.796875 -18.671875 L 16.796875 0 L 4.46875 0 L 4.46875 -40.234375 L 16.796875 -40.234375 Z M 16.796875 -33.53125 "/></g></g></g><g fill="#604329" fill-opacity="1"><g transform="translate(415.587312, 626.812304)"><g/></g></g><g fill="#604329" fill-opacity="1"><g transform="translate(430.867928, 626.812304)"><g><path d="M 33.8125 0 L 16.796875 -22.34375 L 16.796875 0 L 4.46875 0 L 4.46875 -50.609375 L 16.796875 -50.609375 L 16.796875 -28.40625 L 33.671875 -50.609375 L 48.15625 -50.609375 L 28.546875 -25.8125 L 48.875 0 Z M 33.8125 0 "/></g></g></g><g fill="#604329" fill-opacity="1"><g transform="translate(481.106552, 626.812304)"><g><path d="M 42.390625 -20.765625 C 42.390625 -19.609375 42.316406 -18.40625 42.171875 -17.15625 L 14.28125 -17.15625 C 14.46875 -14.65625 15.269531 -12.742188 16.6875 -11.421875 C 18.101562 -10.097656 19.847656 -9.4375 21.921875 -9.4375 C 24.992188 -9.4375 27.128906 -10.738281 28.328125 -13.34375 L 41.453125 -13.34375 C 40.773438 -10.695312 39.5625 -8.316406 37.8125 -6.203125 C 36.0625 -4.085938 33.863281 -2.425781 31.21875 -1.21875 C 28.570312 -0.0195312 25.613281 0.578125 22.34375 0.578125 C 18.40625 0.578125 14.894531 -0.257812 11.8125 -1.9375 C 8.738281 -3.625 6.335938 -6.03125 4.609375 -9.15625 C 2.878906 -12.28125 2.015625 -15.929688 2.015625 -20.109375 C 2.015625 -24.296875 2.867188 -27.953125 4.578125 -31.078125 C 6.285156 -34.203125 8.675781 -36.601562 11.75 -38.28125 C 14.820312 -39.96875 18.351562 -40.8125 22.34375 -40.8125 C 26.238281 -40.8125 29.695312 -39.992188 32.71875 -38.359375 C 35.75 -36.722656 38.117188 -34.390625 39.828125 -31.359375 C 41.535156 -28.328125 42.390625 -24.796875 42.390625 -20.765625 Z M 29.78125 -24 C 29.78125 -26.113281 29.054688 -27.796875 27.609375 -29.046875 C 26.171875 -30.296875 24.367188 -30.921875 22.203125 -30.921875 C 20.140625 -30.921875 18.394531 -30.320312 16.96875 -29.125 C 15.550781 -27.925781 14.675781 -26.21875 14.34375 -24 Z M 29.78125 -24 "/></g></g></g><g fill="#604329" fill-opacity="1"><g transform="translate(525.506829, 626.812304)"><g><path d="M 26.890625 -10.453125 L 26.890625 0 L 20.625 0 C 16.15625 0 12.671875 -1.09375 10.171875 -3.28125 C 7.671875 -5.46875 6.421875 -9.035156 6.421875 -13.984375 L 6.421875 -29.984375 L 1.515625 -29.984375 L 1.515625 -40.234375 L 6.421875 -40.234375 L 6.421875 -50.03125 L 18.75 -50.03125 L 18.75 -40.234375 L 26.8125 -40.234375 L 26.8125 -29.984375 L 18.75 -29.984375 L 18.75 -13.84375 C 18.75 -12.644531 19.035156 -11.78125 19.609375 -11.25 C 20.179688 -10.71875 21.144531 -10.453125 22.5 -10.453125 Z M 26.890625 -10.453125 "/></g></g></g><g fill="#604329" fill-opacity="1"><g transform="translate(554.770659, 626.812304)"><g><path d="M 10.671875 -44.40625 C 8.503906 -44.40625 6.734375 -45.039062 5.359375 -46.3125 C 3.992188 -47.59375 3.3125 -49.171875 3.3125 -51.046875 C 3.3125 -52.960938 3.992188 -54.554688 5.359375 -55.828125 C 6.734375 -57.109375 8.503906 -57.75 10.671875 -57.75 C 12.785156 -57.75 14.523438 -57.109375 15.890625 -55.828125 C 17.265625 -54.554688 17.953125 -52.960938 17.953125 -51.046875 C 17.953125 -49.171875 17.265625 -47.59375 15.890625 -46.3125 C 14.523438 -45.039062 12.785156 -44.40625 10.671875 -44.40625 Z M 16.796875 -40.234375 L 16.796875 0 L 4.46875 0 L 4.46875 -40.234375 Z M 16.796875 -40.234375 "/></g></g></g><g fill="#604329" fill-opacity="1"><g transform="translate(576.033763, 626.812304)"><g><path d="M 29.046875 0 L 16.796875 -16.875 L 16.796875 0 L 4.46875 0 L 4.46875 -53.34375 L 16.796875 -53.34375 L 16.796875 -23.859375 L 28.984375 -40.234375 L 44.1875 -40.234375 L 27.46875 -20.046875 L 44.34375 0 Z M 29.046875 0 "/></g></g></g><g fill="#604329" fill-opacity="1"><g transform="translate(620.578157, 626.812304)"><g><path d="M 2.015625 -20.1875 C 2.015625 -24.320312 2.796875 -27.953125 4.359375 -31.078125 C 5.921875 -34.203125 8.046875 -36.601562 10.734375 -38.28125 C 13.429688 -39.96875 16.4375 -40.8125 19.75 -40.8125 C 22.582031 -40.8125 25.066406 -40.234375 27.203125 -39.078125 C 29.347656 -37.921875 31 -36.40625 32.15625 -34.53125 L 32.15625 -40.234375 L 44.484375 -40.234375 L 44.484375 0 L 32.15625 0 L 32.15625 -5.703125 C 30.945312 -3.828125 29.273438 -2.3125 27.140625 -1.15625 C 25.003906 0 22.519531 0.578125 19.6875 0.578125 C 16.414062 0.578125 13.429688 -0.273438 10.734375 -1.984375 C 8.046875 -3.691406 5.921875 -6.117188 4.359375 -9.265625 C 2.796875 -12.410156 2.015625 -16.050781 2.015625 -20.1875 Z M 32.15625 -20.109375 C 32.15625 -23.191406 31.300781 -25.617188 29.59375 -27.390625 C 27.882812 -29.171875 25.804688 -30.0625 23.359375 -30.0625 C 20.910156 -30.0625 18.832031 -29.179688 17.125 -27.421875 C 15.414062 -25.671875 14.5625 -23.257812 14.5625 -20.1875 C 14.5625 -17.113281 15.414062 -14.675781 17.125 -12.875 C 18.832031 -11.070312 20.910156 -10.171875 23.359375 -10.171875 C 25.804688 -10.171875 27.882812 -11.054688 29.59375 -12.828125 C 31.300781 -14.609375 32.15625 -17.035156 32.15625 -20.109375 Z M 32.15625 -20.109375 "/></g></g></g><g fill="#604329" fill-opacity="1"><g transform="translate(310.840509, 727.166748)"><g><path d="M 22.78125 0.5 C 19.082031 0.5 15.765625 -0.0976562 12.828125 -1.296875 C 9.898438 -2.492188 7.554688 -4.269531 5.796875 -6.625 C 4.046875 -8.988281 3.125 -11.828125 3.03125 -15.140625 L 16.15625 -15.140625 C 16.34375 -13.265625 16.988281 -11.832031 18.09375 -10.84375 C 19.195312 -9.863281 20.640625 -9.375 22.421875 -9.375 C 24.242188 -9.375 25.679688 -9.789062 26.734375 -10.625 C 27.796875 -11.46875 28.328125 -12.632812 28.328125 -14.125 C 28.328125 -15.375 27.90625 -16.40625 27.0625 -17.21875 C 26.226562 -18.039062 25.195312 -18.71875 23.96875 -19.25 C 22.738281 -19.78125 21 -20.378906 18.75 -21.046875 C 15.476562 -22.054688 12.804688 -23.066406 10.734375 -24.078125 C 8.671875 -25.085938 6.894531 -26.578125 5.40625 -28.546875 C 3.914062 -30.515625 3.171875 -33.085938 3.171875 -36.265625 C 3.171875 -40.972656 4.875 -44.660156 8.28125 -47.328125 C 11.695312 -49.992188 16.144531 -51.328125 21.625 -51.328125 C 27.195312 -51.328125 31.691406 -49.992188 35.109375 -47.328125 C 38.523438 -44.660156 40.351562 -40.945312 40.59375 -36.1875 L 27.25 -36.1875 C 27.15625 -37.820312 26.554688 -39.109375 25.453125 -40.046875 C 24.347656 -40.984375 22.929688 -41.453125 21.203125 -41.453125 C 19.703125 -41.453125 18.492188 -41.054688 17.578125 -40.265625 C 16.671875 -39.472656 16.21875 -38.332031 16.21875 -36.84375 C 16.21875 -35.207031 16.984375 -33.929688 18.515625 -33.015625 C 20.054688 -32.109375 22.460938 -31.125 25.734375 -30.0625 C 29.003906 -28.957031 31.660156 -27.898438 33.703125 -26.890625 C 35.742188 -25.878906 37.507812 -24.410156 39 -22.484375 C 40.488281 -20.566406 41.234375 -18.09375 41.234375 -15.0625 C 41.234375 -12.175781 40.5 -9.554688 39.03125 -7.203125 C 37.570312 -4.847656 35.445312 -2.972656 32.65625 -1.578125 C 29.875 -0.191406 26.582031 0.5 22.78125 0.5 Z M 22.78125 0.5 "/></g></g></g><g fill="#604329" fill-opacity="1"><g transform="translate(355.168715, 727.166748)"><g><path d="M 2.015625 -20.1875 C 2.015625 -24.320312 2.796875 -27.953125 4.359375 -31.078125 C 5.921875 -34.203125 8.046875 -36.601562 10.734375 -38.28125 C 13.429688 -39.96875 16.4375 -40.8125 19.75 -40.8125 C 22.582031 -40.8125 25.066406 -40.234375 27.203125 -39.078125 C 29.347656 -37.921875 31 -36.40625 32.15625 -34.53125 L 32.15625 -40.234375 L 44.484375 -40.234375 L 44.484375 0 L 32.15625 0 L 32.15625 -5.703125 C 30.945312 -3.828125 29.273438 -2.3125 27.140625 -1.15625 C 25.003906 0 22.519531 0.578125 19.6875 0.578125 C 16.414062 0.578125 13.429688 -0.273438 10.734375 -1.984375 C 8.046875 -3.691406 5.921875 -6.117188 4.359375 -9.265625 C 2.796875 -12.410156 2.015625 -16.050781 2.015625 -20.1875 Z M 32.15625 -20.109375 C 32.15625 -23.191406 31.300781 -25.617188 29.59375 -27.390625 C 27.882812 -29.171875 25.804688 -30.0625 23.359375 -30.0625 C 20.910156 -30.0625 18.832031 -29.179688 17.125 -27.421875 C 15.414062 -25.671875 14.5625 -23.257812 14.5625 -20.1875 C 14.5625 -17.113281 15.414062 -14.675781 17.125 -12.875 C 18.832031 -11.070312 20.910156 -10.171875 23.359375 -10.171875 C 25.804688 -10.171875 27.882812 -11.054688 29.59375 -12.828125 C 31.300781 -14.609375 32.15625 -17.035156 32.15625 -20.109375 Z M 32.15625 -20.109375 "/></g></g></g><g fill="#604329" fill-opacity="1"><g transform="translate(404.109937, 727.166748)"><g><path d="M 29.046875 0 L 16.796875 -16.875 L 16.796875 0 L 4.46875 0 L 4.46875 -53.34375 L 16.796875 -53.34375 L 16.796875 -23.859375 L 28.984375 -40.234375 L 44.1875 -40.234375 L 27.46875 -20.046875 L 44.34375 0 Z M 29.046875 0 "/></g></g></g><g fill="#604329" fill-opacity="1"><g transform="translate(448.654357, 727.166748)"><g><path d="M 10.671875 -44.40625 C 8.503906 -44.40625 6.734375 -45.039062 5.359375 -46.3125 C 3.992188 -47.59375 3.3125 -49.171875 3.3125 -51.046875 C 3.3125 -52.960938 3.992188 -54.554688 5.359375 -55.828125 C 6.734375 -57.109375 8.503906 -57.75 10.671875 -57.75 C 12.785156 -57.75 14.523438 -57.109375 15.890625 -55.828125 C 17.265625 -54.554688 17.953125 -52.960938 17.953125 -51.046875 C 17.953125 -49.171875 17.265625 -47.59375 15.890625 -46.3125 C 14.523438 -45.039062 12.785156 -44.40625 10.671875 -44.40625 Z M 16.796875 -40.234375 L 16.796875 0 L 4.46875 0 L 4.46875 -40.234375 Z M 16.796875 -40.234375 "/></g></g></g><g fill="#604329" fill-opacity="1"><g transform="translate(469.917486, 727.166748)"><g><path d="M 26.890625 -10.453125 L 26.890625 0 L 20.625 0 C 16.15625 0 12.671875 -1.09375 10.171875 -3.28125 C 7.671875 -5.46875 6.421875 -9.035156 6.421875 -13.984375 L 6.421875 -29.984375 L 1.515625 -29.984375 L 1.515625 -40.234375 L 6.421875 -40.234375 L 6.421875 -50.03125 L 18.75 -50.03125 L 18.75 -40.234375 L 26.8125 -40.234375 L 26.8125 -29.984375 L 18.75 -29.984375 L 18.75 -13.84375 C 18.75 -12.644531 19.035156 -11.78125 19.609375 -11.25 C 20.179688 -10.71875 21.144531 -10.453125 22.5 -10.453125 Z M 26.890625 -10.453125 "/></g></g></g></svg>